<svg width="983" height="830" viewBox="0 0 983 830" fill="none" xmlns="http://www.w3.org/2000/svg">
<path d="M1.72216 2.87391C2.53386 2.87391 3.19176 2.2837 3.19176 1.5556C3.19176 0.827503 2.53386 0.237305 1.72216 0.237305C0.910464 0.237305 0.252563 0.827503 0.252563 1.5556C0.252563 2.2837 0.910464 2.87391 1.72216 2.87391Z" fill="#3C3A40"/>
<path d="M59.4443 2.87391C60.2559 2.87391 60.9139 2.2837 60.9139 1.5556C60.9139 0.827503 60.2559 0.237305 59.4443 0.237305C58.6326 0.237305 57.9746 0.827503 57.9746 1.5556C57.9746 2.2837 58.6326 2.87391 59.4443 2.87391Z" fill="#3C3A40"/>
<path d="M117.167 2.87391C117.978 2.87391 118.636 2.2837 118.636 1.5556C118.636 0.827503 117.978 0.237305 117.167 0.237305C116.355 0.237305 115.697 0.827503 115.697 1.5556C115.697 2.2837 116.355 2.87391 117.167 2.87391Z" fill="#3C3A40"/>
<path d="M174.889 2.87391C175.7 2.87391 176.358 2.2837 176.358 1.5556C176.358 0.827503 175.7 0.237305 174.889 0.237305C174.077 0.237305 173.419 0.827503 173.419 1.5556C173.419 2.2837 174.077 2.87391 174.889 2.87391Z" fill="#3C3A40"/>
<path d="M232.611 2.87391C233.423 2.87391 234.081 2.2837 234.081 1.5556C234.081 0.827503 233.423 0.237305 232.611 0.237305C231.799 0.237305 231.141 0.827503 231.141 1.5556C231.141 2.2837 231.799 2.87391 232.611 2.87391Z" fill="#3C3A40"/>
<path d="M290.333 2.87391C291.145 2.87391 291.803 2.2837 291.803 1.5556C291.803 0.827503 291.145 0.237305 290.333 0.237305C289.522 0.237305 288.864 0.827503 288.864 1.5556C288.864 2.2837 289.522 2.87391 290.333 2.87391Z" fill="#3C3A40"/>
<path d="M348.055 2.87391C348.867 2.87391 349.525 2.2837 349.525 1.5556C349.525 0.827503 348.867 0.237305 348.055 0.237305C347.244 0.237305 346.586 0.827503 346.586 1.5556C346.586 2.2837 347.244 2.87391 348.055 2.87391Z" fill="#3C3A40"/>
<path d="M405.778 2.87391C406.589 2.87391 407.247 2.2837 407.247 1.5556C407.247 0.827503 406.589 0.237305 405.778 0.237305C404.966 0.237305 404.308 0.827503 404.308 1.5556C404.308 2.2837 404.966 2.87391 405.778 2.87391Z" fill="#3C3A40"/>
<path d="M463.5 2.87391C464.312 2.87391 464.97 2.2837 464.97 1.5556C464.97 0.827503 464.312 0.237305 463.5 0.237305C462.688 0.237305 462.03 0.827503 462.03 1.5556C462.03 2.2837 462.688 2.87391 463.5 2.87391Z" fill="#3C3A40"/>
<path d="M521.222 2.87391C522.034 2.87391 522.692 2.2837 522.692 1.5556C522.692 0.827503 522.034 0.237305 521.222 0.237305C520.41 0.237305 519.752 0.827503 519.752 1.5556C519.752 2.2837 520.41 2.87391 521.222 2.87391Z" fill="#3C3A40"/>
<path d="M578.944 2.87391C579.756 2.87391 580.414 2.2837 580.414 1.5556C580.414 0.827503 579.756 0.237305 578.944 0.237305C578.133 0.237305 577.475 0.827503 577.475 1.5556C577.475 2.2837 578.133 2.87391 578.944 2.87391Z" fill="#3C3A40"/>
<path d="M636.667 2.87391C637.478 2.87391 638.136 2.2837 638.136 1.5556C638.136 0.827503 637.478 0.237305 636.667 0.237305C635.855 0.237305 635.197 0.827503 635.197 1.5556C635.197 2.2837 635.855 2.87391 636.667 2.87391Z" fill="#3C3A40"/>
<path d="M694.389 2.87391C695.201 2.87391 695.858 2.2837 695.858 1.5556C695.858 0.827503 695.201 0.237305 694.389 0.237305C693.577 0.237305 692.919 0.827503 692.919 1.5556C692.919 2.2837 693.577 2.87391 694.389 2.87391Z" fill="#3C3A40"/>
<path d="M752.111 2.87391C752.923 2.87391 753.581 2.2837 753.581 1.5556C753.581 0.827503 752.923 0.237305 752.111 0.237305C751.299 0.237305 750.641 0.827503 750.641 1.5556C750.641 2.2837 751.299 2.87391 752.111 2.87391Z" fill="#3C3A40"/>
<path d="M809.833 2.87391C810.645 2.87391 811.303 2.2837 811.303 1.5556C811.303 0.827503 810.645 0.237305 809.833 0.237305C809.022 0.237305 808.364 0.827503 808.364 1.5556C808.364 2.2837 809.022 2.87391 809.833 2.87391Z" fill="#3C3A40"/>
<path d="M867.556 2.87391C868.367 2.87391 869.025 2.2837 869.025 1.5556C869.025 0.827503 868.367 0.237305 867.556 0.237305C866.744 0.237305 866.086 0.827503 866.086 1.5556C866.086 2.2837 866.744 2.87391 867.556 2.87391Z" fill="#3C3A40"/>
<path d="M925.278 2.87391C926.089 2.87391 926.747 2.2837 926.747 1.5556C926.747 0.827503 926.089 0.237305 925.278 0.237305C924.466 0.237305 923.808 0.827503 923.808 1.5556C923.808 2.2837 924.466 2.87391 925.278 2.87391Z" fill="#3C3A40"/>
<path d="M983 2.87391C983.812 2.87391 984.47 2.2837 984.47 1.5556C984.47 0.827503 983.812 0.237305 983 0.237305C982.188 0.237305 981.53 0.827503 981.53 1.5556C981.53 2.2837 982.188 2.87391 983 2.87391Z" fill="#3C3A40"/>
<path d="M1.72216 54.6517C2.53386 54.6517 3.19176 54.0615 3.19176 53.3334C3.19176 52.6053 2.53386 52.0151 1.72216 52.0151C0.910464 52.0151 0.252563 52.6053 0.252563 53.3334C0.252563 54.0615 0.910464 54.6517 1.72216 54.6517Z" fill="#3C3A40"/>
<path d="M59.4443 54.6517C60.2559 54.6517 60.9139 54.0615 60.9139 53.3334C60.9139 52.6053 60.2559 52.0151 59.4443 52.0151C58.6326 52.0151 57.9746 52.6053 57.9746 53.3334C57.9746 54.0615 58.6326 54.6517 59.4443 54.6517Z" fill="#3C3A40"/>
<path d="M117.167 54.6517C117.978 54.6517 118.636 54.0615 118.636 53.3334C118.636 52.6053 117.978 52.0151 117.167 52.0151C116.355 52.0151 115.697 52.6053 115.697 53.3334C115.697 54.0615 116.355 54.6517 117.167 54.6517Z" fill="#3C3A40"/>
<path d="M174.889 54.6517C175.7 54.6517 176.358 54.0615 176.358 53.3334C176.358 52.6053 175.7 52.0151 174.889 52.0151C174.077 52.0151 173.419 52.6053 173.419 53.3334C173.419 54.0615 174.077 54.6517 174.889 54.6517Z" fill="#3C3A40"/>
<path d="M232.611 54.6517C233.423 54.6517 234.081 54.0615 234.081 53.3334C234.081 52.6053 233.423 52.0151 232.611 52.0151C231.799 52.0151 231.141 52.6053 231.141 53.3334C231.141 54.0615 231.799 54.6517 232.611 54.6517Z" fill="#3C3A40"/>
<path d="M290.333 54.6517C291.145 54.6517 291.803 54.0615 291.803 53.3334C291.803 52.6053 291.145 52.0151 290.333 52.0151C289.522 52.0151 288.864 52.6053 288.864 53.3334C288.864 54.0615 289.522 54.6517 290.333 54.6517Z" fill="#3C3A40"/>
<path d="M348.055 54.6517C348.867 54.6517 349.525 54.0615 349.525 53.3334C349.525 52.6053 348.867 52.0151 348.055 52.0151C347.244 52.0151 346.586 52.6053 346.586 53.3334C346.586 54.0615 347.244 54.6517 348.055 54.6517Z" fill="#3C3A40"/>
<path d="M405.778 54.6517C406.589 54.6517 407.247 54.0615 407.247 53.3334C407.247 52.6053 406.589 52.0151 405.778 52.0151C404.966 52.0151 404.308 52.6053 404.308 53.3334C404.308 54.0615 404.966 54.6517 405.778 54.6517Z" fill="#3C3A40"/>
<path d="M463.5 54.6517C464.312 54.6517 464.97 54.0615 464.97 53.3334C464.97 52.6053 464.312 52.0151 463.5 52.0151C462.688 52.0151 462.03 52.6053 462.03 53.3334C462.03 54.0615 462.688 54.6517 463.5 54.6517Z" fill="#3C3A40"/>
<path d="M521.222 54.6517C522.034 54.6517 522.692 54.0615 522.692 53.3334C522.692 52.6053 522.034 52.0151 521.222 52.0151C520.41 52.0151 519.752 52.6053 519.752 53.3334C519.752 54.0615 520.41 54.6517 521.222 54.6517Z" fill="#3C3A40"/>
<path d="M578.944 54.6517C579.756 54.6517 580.414 54.0615 580.414 53.3334C580.414 52.6053 579.756 52.0151 578.944 52.0151C578.133 52.0151 577.475 52.6053 577.475 53.3334C577.475 54.0615 578.133 54.6517 578.944 54.6517Z" fill="#3C3A40"/>
<path d="M636.667 54.6517C637.478 54.6517 638.136 54.0615 638.136 53.3334C638.136 52.6053 637.478 52.0151 636.667 52.0151C635.855 52.0151 635.197 52.6053 635.197 53.3334C635.197 54.0615 635.855 54.6517 636.667 54.6517Z" fill="#3C3A40"/>
<path d="M694.389 54.6517C695.201 54.6517 695.858 54.0615 695.858 53.3334C695.858 52.6053 695.201 52.0151 694.389 52.0151C693.577 52.0151 692.919 52.6053 692.919 53.3334C692.919 54.0615 693.577 54.6517 694.389 54.6517Z" fill="#3C3A40"/>
<path d="M752.111 54.6517C752.923 54.6517 753.581 54.0615 753.581 53.3334C753.581 52.6053 752.923 52.0151 752.111 52.0151C751.299 52.0151 750.641 52.6053 750.641 53.3334C750.641 54.0615 751.299 54.6517 752.111 54.6517Z" fill="#3C3A40"/>
<path d="M809.833 54.6517C810.645 54.6517 811.303 54.0615 811.303 53.3334C811.303 52.6053 810.645 52.0151 809.833 52.0151C809.022 52.0151 808.364 52.6053 808.364 53.3334C808.364 54.0615 809.022 54.6517 809.833 54.6517Z" fill="#3C3A40"/>
<path d="M867.556 54.6517C868.367 54.6517 869.025 54.0615 869.025 53.3334C869.025 52.6053 868.367 52.0151 867.556 52.0151C866.744 52.0151 866.086 52.6053 866.086 53.3334C866.086 54.0615 866.744 54.6517 867.556 54.6517Z" fill="#3C3A40"/>
<path d="M925.278 54.6517C926.089 54.6517 926.747 54.0615 926.747 53.3334C926.747 52.6053 926.089 52.0151 925.278 52.0151C924.466 52.0151 923.808 52.6053 923.808 53.3334C923.808 54.0615 924.466 54.6517 925.278 54.6517Z" fill="#3C3A40"/>
<path d="M983 54.6517C983.812 54.6517 984.47 54.0615 984.47 53.3334C984.47 52.6053 983.812 52.0151 983 52.0151C982.188 52.0151 981.53 52.6053 981.53 53.3334C981.53 54.0615 982.188 54.6517 983 54.6517Z" fill="#3C3A40"/>
<path d="M1.72216 106.429C2.53386 106.429 3.19176 105.839 3.19176 105.111C3.19176 104.383 2.53386 103.793 1.72216 103.793C0.910464 103.793 0.252563 104.383 0.252563 105.111C0.252563 105.839 0.910464 106.429 1.72216 106.429Z" fill="#3C3A40"/>
<path d="M59.4443 106.429C60.2559 106.429 60.9139 105.839 60.9139 105.111C60.9139 104.383 60.2559 103.793 59.4443 103.793C58.6326 103.793 57.9746 104.383 57.9746 105.111C57.9746 105.839 58.6326 106.429 59.4443 106.429Z" fill="#3C3A40"/>
<path d="M117.167 106.429C117.978 106.429 118.636 105.839 118.636 105.111C118.636 104.383 117.978 103.793 117.167 103.793C116.355 103.793 115.697 104.383 115.697 105.111C115.697 105.839 116.355 106.429 117.167 106.429Z" fill="#3C3A40"/>
<path d="M174.889 106.429C175.7 106.429 176.358 105.839 176.358 105.111C176.358 104.383 175.7 103.793 174.889 103.793C174.077 103.793 173.419 104.383 173.419 105.111C173.419 105.839 174.077 106.429 174.889 106.429Z" fill="#3C3A40"/>
<path d="M232.611 106.429C233.423 106.429 234.081 105.839 234.081 105.111C234.081 104.383 233.423 103.793 232.611 103.793C231.799 103.793 231.141 104.383 231.141 105.111C231.141 105.839 231.799 106.429 232.611 106.429Z" fill="#3C3A40"/>
<path d="M290.333 106.429C291.145 106.429 291.803 105.839 291.803 105.111C291.803 104.383 291.145 103.793 290.333 103.793C289.522 103.793 288.864 104.383 288.864 105.111C288.864 105.839 289.522 106.429 290.333 106.429Z" fill="#3C3A40"/>
<path d="M348.055 106.429C348.867 106.429 349.525 105.839 349.525 105.111C349.525 104.383 348.867 103.793 348.055 103.793C347.244 103.793 346.586 104.383 346.586 105.111C346.586 105.839 347.244 106.429 348.055 106.429Z" fill="#3C3A40"/>
<path d="M405.778 106.429C406.589 106.429 407.247 105.839 407.247 105.111C407.247 104.383 406.589 103.793 405.778 103.793C404.966 103.793 404.308 104.383 404.308 105.111C404.308 105.839 404.966 106.429 405.778 106.429Z" fill="#3C3A40"/>
<path d="M463.5 106.429C464.312 106.429 464.97 105.839 464.97 105.111C464.97 104.383 464.312 103.793 463.5 103.793C462.688 103.793 462.03 104.383 462.03 105.111C462.03 105.839 462.688 106.429 463.5 106.429Z" fill="#3C3A40"/>
<path d="M521.222 106.429C522.034 106.429 522.692 105.839 522.692 105.111C522.692 104.383 522.034 103.793 521.222 103.793C520.41 103.793 519.752 104.383 519.752 105.111C519.752 105.839 520.41 106.429 521.222 106.429Z" fill="#3C3A40"/>
<path d="M578.944 106.429C579.756 106.429 580.414 105.839 580.414 105.111C580.414 104.383 579.756 103.793 578.944 103.793C578.133 103.793 577.475 104.383 577.475 105.111C577.475 105.839 578.133 106.429 578.944 106.429Z" fill="#3C3A40"/>
<path d="M636.667 106.429C637.478 106.429 638.136 105.839 638.136 105.111C638.136 104.383 637.478 103.793 636.667 103.793C635.855 103.793 635.197 104.383 635.197 105.111C635.197 105.839 635.855 106.429 636.667 106.429Z" fill="#3C3A40"/>
<path d="M694.389 106.429C695.201 106.429 695.858 105.839 695.858 105.111C695.858 104.383 695.201 103.793 694.389 103.793C693.577 103.793 692.919 104.383 692.919 105.111C692.919 105.839 693.577 106.429 694.389 106.429Z" fill="#3C3A40"/>
<path d="M752.111 106.429C752.923 106.429 753.581 105.839 753.581 105.111C753.581 104.383 752.923 103.793 752.111 103.793C751.299 103.793 750.641 104.383 750.641 105.111C750.641 105.839 751.299 106.429 752.111 106.429Z" fill="#3C3A40"/>
<path d="M809.833 106.429C810.645 106.429 811.303 105.839 811.303 105.111C811.303 104.383 810.645 103.793 809.833 103.793C809.022 103.793 808.364 104.383 808.364 105.111C808.364 105.839 809.022 106.429 809.833 106.429Z" fill="#3C3A40"/>
<path d="M867.556 106.429C868.367 106.429 869.025 105.839 869.025 105.111C869.025 104.383 868.367 103.793 867.556 103.793C866.744 103.793 866.086 104.383 866.086 105.111C866.086 105.839 866.744 106.429 867.556 106.429Z" fill="#3C3A40"/>
<path d="M925.278 106.429C926.089 106.429 926.747 105.839 926.747 105.111C926.747 104.383 926.089 103.793 925.278 103.793C924.466 103.793 923.808 104.383 923.808 105.111C923.808 105.839 924.466 106.429 925.278 106.429Z" fill="#3C3A40"/>
<path d="M983 106.429C983.812 106.429 984.47 105.839 984.47 105.111C984.47 104.383 983.812 103.793 983 103.793C982.188 103.793 981.53 104.383 981.53 105.111C981.53 105.839 982.188 106.429 983 106.429Z" fill="#3C3A40"/>
<path d="M1.72216 158.207C2.53386 158.207 3.19176 157.617 3.19176 156.889C3.19176 156.161 2.53386 155.571 1.72216 155.571C0.910464 155.571 0.252563 156.161 0.252563 156.889C0.252563 157.617 0.910464 158.207 1.72216 158.207Z" fill="#3C3A40"/>
<path d="M59.4443 158.207C60.2559 158.207 60.9139 157.617 60.9139 156.889C60.9139 156.161 60.2559 155.571 59.4443 155.571C58.6326 155.571 57.9746 156.161 57.9746 156.889C57.9746 157.617 58.6326 158.207 59.4443 158.207Z" fill="#3C3A40"/>
<path d="M117.167 158.207C117.978 158.207 118.636 157.617 118.636 156.889C118.636 156.161 117.978 155.571 117.167 155.571C116.355 155.571 115.697 156.161 115.697 156.889C115.697 157.617 116.355 158.207 117.167 158.207Z" fill="#3C3A40"/>
<path d="M174.889 158.207C175.7 158.207 176.358 157.617 176.358 156.889C176.358 156.161 175.7 155.571 174.889 155.571C174.077 155.571 173.419 156.161 173.419 156.889C173.419 157.617 174.077 158.207 174.889 158.207Z" fill="#3C3A40"/>
<path d="M232.611 158.207C233.423 158.207 234.081 157.617 234.081 156.889C234.081 156.161 233.423 155.571 232.611 155.571C231.799 155.571 231.141 156.161 231.141 156.889C231.141 157.617 231.799 158.207 232.611 158.207Z" fill="#3C3A40"/>
<path d="M290.333 158.207C291.145 158.207 291.803 157.617 291.803 156.889C291.803 156.161 291.145 155.571 290.333 155.571C289.522 155.571 288.864 156.161 288.864 156.889C288.864 157.617 289.522 158.207 290.333 158.207Z" fill="#3C3A40"/>
<path d="M348.055 158.207C348.867 158.207 349.525 157.617 349.525 156.889C349.525 156.161 348.867 155.571 348.055 155.571C347.244 155.571 346.586 156.161 346.586 156.889C346.586 157.617 347.244 158.207 348.055 158.207Z" fill="#3C3A40"/>
<path d="M405.778 158.207C406.589 158.207 407.247 157.617 407.247 156.889C407.247 156.161 406.589 155.571 405.778 155.571C404.966 155.571 404.308 156.161 404.308 156.889C404.308 157.617 404.966 158.207 405.778 158.207Z" fill="#3C3A40"/>
<path d="M463.5 158.207C464.312 158.207 464.97 157.617 464.97 156.889C464.97 156.161 464.312 155.571 463.5 155.571C462.688 155.571 462.03 156.161 462.03 156.889C462.03 157.617 462.688 158.207 463.5 158.207Z" fill="#3C3A40"/>
<path d="M521.222 158.207C522.034 158.207 522.692 157.617 522.692 156.889C522.692 156.161 522.034 155.571 521.222 155.571C520.41 155.571 519.752 156.161 519.752 156.889C519.752 157.617 520.41 158.207 521.222 158.207Z" fill="#3C3A40"/>
<path d="M578.944 158.207C579.756 158.207 580.414 157.617 580.414 156.889C580.414 156.161 579.756 155.571 578.944 155.571C578.133 155.571 577.475 156.161 577.475 156.889C577.475 157.617 578.133 158.207 578.944 158.207Z" fill="#3C3A40"/>
<path d="M636.667 158.207C637.478 158.207 638.136 157.617 638.136 156.889C638.136 156.161 637.478 155.571 636.667 155.571C635.855 155.571 635.197 156.161 635.197 156.889C635.197 157.617 635.855 158.207 636.667 158.207Z" fill="#3C3A40"/>
<path d="M694.389 158.207C695.201 158.207 695.858 157.617 695.858 156.889C695.858 156.161 695.201 155.571 694.389 155.571C693.577 155.571 692.919 156.161 692.919 156.889C692.919 157.617 693.577 158.207 694.389 158.207Z" fill="#3C3A40"/>
<path d="M752.111 158.207C752.923 158.207 753.581 157.617 753.581 156.889C753.581 156.161 752.923 155.571 752.111 155.571C751.299 155.571 750.641 156.161 750.641 156.889C750.641 157.617 751.299 158.207 752.111 158.207Z" fill="#3C3A40"/>
<path d="M809.833 158.207C810.645 158.207 811.303 157.617 811.303 156.889C811.303 156.161 810.645 155.571 809.833 155.571C809.022 155.571 808.364 156.161 808.364 156.889C808.364 157.617 809.022 158.207 809.833 158.207Z" fill="#3C3A40"/>
<path d="M867.556 158.207C868.367 158.207 869.025 157.617 869.025 156.889C869.025 156.161 868.367 155.571 867.556 155.571C866.744 155.571 866.086 156.161 866.086 156.889C866.086 157.617 866.744 158.207 867.556 158.207Z" fill="#3C3A40"/>
<path d="M925.278 158.207C926.089 158.207 926.747 157.617 926.747 156.889C926.747 156.161 926.089 155.571 925.278 155.571C924.466 155.571 923.808 156.161 923.808 156.889C923.808 157.617 924.466 158.207 925.278 158.207Z" fill="#3C3A40"/>
<path d="M983 158.207C983.812 158.207 984.47 157.617 984.47 156.889C984.47 156.161 983.812 155.571 983 155.571C982.188 155.571 981.53 156.161 981.53 156.889C981.53 157.617 982.188 158.207 983 158.207Z" fill="#3C3A40"/>
<path d="M1.72216 209.985C2.53386 209.985 3.19176 209.395 3.19176 208.667C3.19176 207.939 2.53386 207.348 1.72216 207.348C0.910464 207.348 0.252563 207.939 0.252563 208.667C0.252563 209.395 0.910464 209.985 1.72216 209.985Z" fill="#3C3A40"/>
<path d="M59.4443 209.985C60.2559 209.985 60.9139 209.395 60.9139 208.667C60.9139 207.939 60.2559 207.348 59.4443 207.348C58.6326 207.348 57.9746 207.939 57.9746 208.667C57.9746 209.395 58.6326 209.985 59.4443 209.985Z" fill="#3C3A40"/>
<path d="M117.167 209.985C117.978 209.985 118.636 209.395 118.636 208.667C118.636 207.939 117.978 207.348 117.167 207.348C116.355 207.348 115.697 207.939 115.697 208.667C115.697 209.395 116.355 209.985 117.167 209.985Z" fill="#3C3A40"/>
<path d="M174.889 209.985C175.7 209.985 176.358 209.395 176.358 208.667C176.358 207.939 175.7 207.348 174.889 207.348C174.077 207.348 173.419 207.939 173.419 208.667C173.419 209.395 174.077 209.985 174.889 209.985Z" fill="#3C3A40"/>
<path d="M232.611 209.985C233.423 209.985 234.081 209.395 234.081 208.667C234.081 207.939 233.423 207.348 232.611 207.348C231.799 207.348 231.141 207.939 231.141 208.667C231.141 209.395 231.799 209.985 232.611 209.985Z" fill="#3C3A40"/>
<path d="M290.333 209.985C291.145 209.985 291.803 209.395 291.803 208.667C291.803 207.939 291.145 207.348 290.333 207.348C289.522 207.348 288.864 207.939 288.864 208.667C288.864 209.395 289.522 209.985 290.333 209.985Z" fill="#3C3A40"/>
<path d="M348.055 209.985C348.867 209.985 349.525 209.395 349.525 208.667C349.525 207.939 348.867 207.348 348.055 207.348C347.244 207.348 346.586 207.939 346.586 208.667C346.586 209.395 347.244 209.985 348.055 209.985Z" fill="#3C3A40"/>
<path d="M405.778 209.985C406.589 209.985 407.247 209.395 407.247 208.667C407.247 207.939 406.589 207.348 405.778 207.348C404.966 207.348 404.308 207.939 404.308 208.667C404.308 209.395 404.966 209.985 405.778 209.985Z" fill="#3C3A40"/>
<path d="M463.5 209.985C464.312 209.985 464.97 209.395 464.97 208.667C464.97 207.939 464.312 207.348 463.5 207.348C462.688 207.348 462.03 207.939 462.03 208.667C462.03 209.395 462.688 209.985 463.5 209.985Z" fill="#3C3A40"/>
<path d="M521.222 209.985C522.034 209.985 522.692 209.395 522.692 208.667C522.692 207.939 522.034 207.348 521.222 207.348C520.41 207.348 519.752 207.939 519.752 208.667C519.752 209.395 520.41 209.985 521.222 209.985Z" fill="#3C3A40"/>
<path d="M578.944 209.985C579.756 209.985 580.414 209.395 580.414 208.667C580.414 207.939 579.756 207.348 578.944 207.348C578.133 207.348 577.475 207.939 577.475 208.667C577.475 209.395 578.133 209.985 578.944 209.985Z" fill="#3C3A40"/>
<path d="M636.667 209.985C637.478 209.985 638.136 209.395 638.136 208.667C638.136 207.939 637.478 207.348 636.667 207.348C635.855 207.348 635.197 207.939 635.197 208.667C635.197 209.395 635.855 209.985 636.667 209.985Z" fill="#3C3A40"/>
<path d="M694.389 209.985C695.201 209.985 695.858 209.395 695.858 208.667C695.858 207.939 695.201 207.348 694.389 207.348C693.577 207.348 692.919 207.939 692.919 208.667C692.919 209.395 693.577 209.985 694.389 209.985Z" fill="#3C3A40"/>
<path d="M752.111 209.985C752.923 209.985 753.581 209.395 753.581 208.667C753.581 207.939 752.923 207.348 752.111 207.348C751.299 207.348 750.641 207.939 750.641 208.667C750.641 209.395 751.299 209.985 752.111 209.985Z" fill="#3C3A40"/>
<path d="M809.833 209.985C810.645 209.985 811.303 209.395 811.303 208.667C811.303 207.939 810.645 207.348 809.833 207.348C809.022 207.348 808.364 207.939 808.364 208.667C808.364 209.395 809.022 209.985 809.833 209.985Z" fill="#3C3A40"/>
<path d="M867.556 209.985C868.367 209.985 869.025 209.395 869.025 208.667C869.025 207.939 868.367 207.348 867.556 207.348C866.744 207.348 866.086 207.939 866.086 208.667C866.086 209.395 866.744 209.985 867.556 209.985Z" fill="#3C3A40"/>
<path d="M925.278 209.985C926.089 209.985 926.747 209.395 926.747 208.667C926.747 207.939 926.089 207.348 925.278 207.348C924.466 207.348 923.808 207.939 923.808 208.667C923.808 209.395 924.466 209.985 925.278 209.985Z" fill="#3C3A40"/>
<path d="M983 209.985C983.812 209.985 984.47 209.395 984.47 208.667C984.47 207.939 983.812 207.348 983 207.348C982.188 207.348 981.53 207.939 981.53 208.667C981.53 209.395 982.188 209.985 983 209.985Z" fill="#3C3A40"/>
<path d="M1.72216 261.763C2.53386 261.763 3.19176 261.173 3.19176 260.444C3.19176 259.716 2.53386 259.126 1.72216 259.126C0.910464 259.126 0.252563 259.716 0.252563 260.444C0.252563 261.173 0.910464 261.763 1.72216 261.763Z" fill="#3C3A40"/>
<path d="M59.4443 261.763C60.2559 261.763 60.9139 261.173 60.9139 260.444C60.9139 259.716 60.2559 259.126 59.4443 259.126C58.6326 259.126 57.9746 259.716 57.9746 260.444C57.9746 261.173 58.6326 261.763 59.4443 261.763Z" fill="#3C3A40"/>
<path d="M117.167 261.763C117.978 261.763 118.636 261.173 118.636 260.444C118.636 259.716 117.978 259.126 117.167 259.126C116.355 259.126 115.697 259.716 115.697 260.444C115.697 261.173 116.355 261.763 117.167 261.763Z" fill="#3C3A40"/>
<path d="M174.889 261.763C175.7 261.763 176.358 261.173 176.358 260.444C176.358 259.716 175.7 259.126 174.889 259.126C174.077 259.126 173.419 259.716 173.419 260.444C173.419 261.173 174.077 261.763 174.889 261.763Z" fill="#3C3A40"/>
<path d="M232.611 261.763C233.423 261.763 234.081 261.173 234.081 260.444C234.081 259.716 233.423 259.126 232.611 259.126C231.799 259.126 231.141 259.716 231.141 260.444C231.141 261.173 231.799 261.763 232.611 261.763Z" fill="#3C3A40"/>
<path d="M290.333 261.763C291.145 261.763 291.803 261.173 291.803 260.444C291.803 259.716 291.145 259.126 290.333 259.126C289.522 259.126 288.864 259.716 288.864 260.444C288.864 261.173 289.522 261.763 290.333 261.763Z" fill="#3C3A40"/>
<path d="M348.055 261.763C348.867 261.763 349.525 261.173 349.525 260.444C349.525 259.716 348.867 259.126 348.055 259.126C347.244 259.126 346.586 259.716 346.586 260.444C346.586 261.173 347.244 261.763 348.055 261.763Z" fill="#3C3A40"/>
<path d="M405.778 261.763C406.589 261.763 407.247 261.173 407.247 260.444C407.247 259.716 406.589 259.126 405.778 259.126C404.966 259.126 404.308 259.716 404.308 260.444C404.308 261.173 404.966 261.763 405.778 261.763Z" fill="#3C3A40"/>
<path d="M463.5 261.763C464.312 261.763 464.97 261.173 464.97 260.444C464.97 259.716 464.312 259.126 463.5 259.126C462.688 259.126 462.03 259.716 462.03 260.444C462.03 261.173 462.688 261.763 463.5 261.763Z" fill="#3C3A40"/>
<path d="M521.222 261.763C522.034 261.763 522.692 261.173 522.692 260.444C522.692 259.716 522.034 259.126 521.222 259.126C520.41 259.126 519.752 259.716 519.752 260.444C519.752 261.173 520.41 261.763 521.222 261.763Z" fill="#3C3A40"/>
<path d="M578.944 261.763C579.756 261.763 580.414 261.173 580.414 260.444C580.414 259.716 579.756 259.126 578.944 259.126C578.133 259.126 577.475 259.716 577.475 260.444C577.475 261.173 578.133 261.763 578.944 261.763Z" fill="#3C3A40"/>
<path d="M636.667 261.763C637.478 261.763 638.136 261.173 638.136 260.444C638.136 259.716 637.478 259.126 636.667 259.126C635.855 259.126 635.197 259.716 635.197 260.444C635.197 261.173 635.855 261.763 636.667 261.763Z" fill="#3C3A40"/>
<path d="M694.389 261.763C695.201 261.763 695.858 261.173 695.858 260.444C695.858 259.716 695.201 259.126 694.389 259.126C693.577 259.126 692.919 259.716 692.919 260.444C692.919 261.173 693.577 261.763 694.389 261.763Z" fill="#3C3A40"/>
<path d="M752.111 261.763C752.923 261.763 753.581 261.173 753.581 260.444C753.581 259.716 752.923 259.126 752.111 259.126C751.299 259.126 750.641 259.716 750.641 260.444C750.641 261.173 751.299 261.763 752.111 261.763Z" fill="#3C3A40"/>
<path d="M809.833 261.763C810.645 261.763 811.303 261.173 811.303 260.444C811.303 259.716 810.645 259.126 809.833 259.126C809.022 259.126 808.364 259.716 808.364 260.444C808.364 261.173 809.022 261.763 809.833 261.763Z" fill="#3C3A40"/>
<path d="M867.556 261.763C868.367 261.763 869.025 261.173 869.025 260.444C869.025 259.716 868.367 259.126 867.556 259.126C866.744 259.126 866.086 259.716 866.086 260.444C866.086 261.173 866.744 261.763 867.556 261.763Z" fill="#3C3A40"/>
<path d="M925.278 261.763C926.089 261.763 926.747 261.173 926.747 260.444C926.747 259.716 926.089 259.126 925.278 259.126C924.466 259.126 923.808 259.716 923.808 260.444C923.808 261.173 924.466 261.763 925.278 261.763Z" fill="#3C3A40"/>
<path d="M983 261.763C983.812 261.763 984.47 261.173 984.47 260.444C984.47 259.716 983.812 259.126 983 259.126C982.188 259.126 981.53 259.716 981.53 260.444C981.53 261.173 982.188 261.763 983 261.763Z" fill="#3C3A40"/>
<path d="M1.72216 313.541C2.53386 313.541 3.19176 312.95 3.19176 312.222C3.19176 311.494 2.53386 310.904 1.72216 310.904C0.910464 310.904 0.252563 311.494 0.252563 312.222C0.252563 312.95 0.910464 313.541 1.72216 313.541Z" fill="#3C3A40"/>
<path d="M59.4443 313.541C60.2559 313.541 60.9139 312.95 60.9139 312.222C60.9139 311.494 60.2559 310.904 59.4443 310.904C58.6326 310.904 57.9746 311.494 57.9746 312.222C57.9746 312.95 58.6326 313.541 59.4443 313.541Z" fill="#3C3A40"/>
<path d="M117.167 313.541C117.978 313.541 118.636 312.95 118.636 312.222C118.636 311.494 117.978 310.904 117.167 310.904C116.355 310.904 115.697 311.494 115.697 312.222C115.697 312.95 116.355 313.541 117.167 313.541Z" fill="#3C3A40"/>
<path d="M174.889 313.541C175.7 313.541 176.358 312.95 176.358 312.222C176.358 311.494 175.7 310.904 174.889 310.904C174.077 310.904 173.419 311.494 173.419 312.222C173.419 312.95 174.077 313.541 174.889 313.541Z" fill="#3C3A40"/>
<path d="M232.611 313.541C233.423 313.541 234.081 312.95 234.081 312.222C234.081 311.494 233.423 310.904 232.611 310.904C231.799 310.904 231.141 311.494 231.141 312.222C231.141 312.95 231.799 313.541 232.611 313.541Z" fill="#3C3A40"/>
<path d="M290.333 313.541C291.145 313.541 291.803 312.95 291.803 312.222C291.803 311.494 291.145 310.904 290.333 310.904C289.522 310.904 288.864 311.494 288.864 312.222C288.864 312.95 289.522 313.541 290.333 313.541Z" fill="#3C3A40"/>
<path d="M348.055 313.541C348.867 313.541 349.525 312.95 349.525 312.222C349.525 311.494 348.867 310.904 348.055 310.904C347.244 310.904 346.586 311.494 346.586 312.222C346.586 312.95 347.244 313.541 348.055 313.541Z" fill="#3C3A40"/>
<path d="M405.778 313.541C406.589 313.541 407.247 312.95 407.247 312.222C407.247 311.494 406.589 310.904 405.778 310.904C404.966 310.904 404.308 311.494 404.308 312.222C404.308 312.95 404.966 313.541 405.778 313.541Z" fill="#3C3A40"/>
<path d="M463.5 313.541C464.312 313.541 464.97 312.95 464.97 312.222C464.97 311.494 464.312 310.904 463.5 310.904C462.688 310.904 462.03 311.494 462.03 312.222C462.03 312.95 462.688 313.541 463.5 313.541Z" fill="#3C3A40"/>
<path d="M521.222 313.541C522.034 313.541 522.692 312.95 522.692 312.222C522.692 311.494 522.034 310.904 521.222 310.904C520.41 310.904 519.752 311.494 519.752 312.222C519.752 312.95 520.41 313.541 521.222 313.541Z" fill="#3C3A40"/>
<path d="M578.944 313.541C579.756 313.541 580.414 312.95 580.414 312.222C580.414 311.494 579.756 310.904 578.944 310.904C578.133 310.904 577.475 311.494 577.475 312.222C577.475 312.95 578.133 313.541 578.944 313.541Z" fill="#3C3A40"/>
<path d="M636.667 313.541C637.478 313.541 638.136 312.95 638.136 312.222C638.136 311.494 637.478 310.904 636.667 310.904C635.855 310.904 635.197 311.494 635.197 312.222C635.197 312.95 635.855 313.541 636.667 313.541Z" fill="#3C3A40"/>
<path d="M694.389 313.541C695.201 313.541 695.858 312.95 695.858 312.222C695.858 311.494 695.201 310.904 694.389 310.904C693.577 310.904 692.919 311.494 692.919 312.222C692.919 312.95 693.577 313.541 694.389 313.541Z" fill="#3C3A40"/>
<path d="M752.111 313.541C752.923 313.541 753.581 312.95 753.581 312.222C753.581 311.494 752.923 310.904 752.111 310.904C751.299 310.904 750.641 311.494 750.641 312.222C750.641 312.95 751.299 313.541 752.111 313.541Z" fill="#3C3A40"/>
<path d="M809.833 313.541C810.645 313.541 811.303 312.95 811.303 312.222C811.303 311.494 810.645 310.904 809.833 310.904C809.022 310.904 808.364 311.494 808.364 312.222C808.364 312.95 809.022 313.541 809.833 313.541Z" fill="#3C3A40"/>
<path d="M867.556 313.541C868.367 313.541 869.025 312.95 869.025 312.222C869.025 311.494 868.367 310.904 867.556 310.904C866.744 310.904 866.086 311.494 866.086 312.222C866.086 312.95 866.744 313.541 867.556 313.541Z" fill="#3C3A40"/>
<path d="M925.278 313.541C926.089 313.541 926.747 312.95 926.747 312.222C926.747 311.494 926.089 310.904 925.278 310.904C924.466 310.904 923.808 311.494 923.808 312.222C923.808 312.95 924.466 313.541 925.278 313.541Z" fill="#3C3A40"/>
<path d="M983 313.541C983.812 313.541 984.47 312.95 984.47 312.222C984.47 311.494 983.812 310.904 983 310.904C982.188 310.904 981.53 311.494 981.53 312.222C981.53 312.95 982.188 313.541 983 313.541Z" fill="#3C3A40"/>
<path d="M1.72216 365.318C2.53386 365.318 3.19176 364.728 3.19176 364C3.19176 363.272 2.53386 362.682 1.72216 362.682C0.910464 362.682 0.252563 363.272 0.252563 364C0.252563 364.728 0.910464 365.318 1.72216 365.318Z" fill="#3C3A40"/>
<path d="M59.4443 365.318C60.2559 365.318 60.9139 364.728 60.9139 364C60.9139 363.272 60.2559 362.682 59.4443 362.682C58.6326 362.682 57.9746 363.272 57.9746 364C57.9746 364.728 58.6326 365.318 59.4443 365.318Z" fill="#3C3A40"/>
<path d="M117.167 365.318C117.978 365.318 118.636 364.728 118.636 364C118.636 363.272 117.978 362.682 117.167 362.682C116.355 362.682 115.697 363.272 115.697 364C115.697 364.728 116.355 365.318 117.167 365.318Z" fill="#3C3A40"/>
<path d="M174.889 365.318C175.7 365.318 176.358 364.728 176.358 364C176.358 363.272 175.7 362.682 174.889 362.682C174.077 362.682 173.419 363.272 173.419 364C173.419 364.728 174.077 365.318 174.889 365.318Z" fill="#3C3A40"/>
<path d="M232.611 365.318C233.423 365.318 234.081 364.728 234.081 364C234.081 363.272 233.423 362.682 232.611 362.682C231.799 362.682 231.141 363.272 231.141 364C231.141 364.728 231.799 365.318 232.611 365.318Z" fill="#3C3A40"/>
<path d="M290.333 365.318C291.145 365.318 291.803 364.728 291.803 364C291.803 363.272 291.145 362.682 290.333 362.682C289.522 362.682 288.864 363.272 288.864 364C288.864 364.728 289.522 365.318 290.333 365.318Z" fill="#3C3A40"/>
<path d="M348.055 365.318C348.867 365.318 349.525 364.728 349.525 364C349.525 363.272 348.867 362.682 348.055 362.682C347.244 362.682 346.586 363.272 346.586 364C346.586 364.728 347.244 365.318 348.055 365.318Z" fill="#3C3A40"/>
<path d="M405.778 365.318C406.589 365.318 407.247 364.728 407.247 364C407.247 363.272 406.589 362.682 405.778 362.682C404.966 362.682 404.308 363.272 404.308 364C404.308 364.728 404.966 365.318 405.778 365.318Z" fill="#3C3A40"/>
<path d="M463.5 365.318C464.312 365.318 464.97 364.728 464.97 364C464.97 363.272 464.312 362.682 463.5 362.682C462.688 362.682 462.03 363.272 462.03 364C462.03 364.728 462.688 365.318 463.5 365.318Z" fill="#3C3A40"/>
<path d="M521.222 365.318C522.034 365.318 522.692 364.728 522.692 364C522.692 363.272 522.034 362.682 521.222 362.682C520.41 362.682 519.752 363.272 519.752 364C519.752 364.728 520.41 365.318 521.222 365.318Z" fill="#3C3A40"/>
<path d="M578.944 365.318C579.756 365.318 580.414 364.728 580.414 364C580.414 363.272 579.756 362.682 578.944 362.682C578.133 362.682 577.475 363.272 577.475 364C577.475 364.728 578.133 365.318 578.944 365.318Z" fill="#3C3A40"/>
<path d="M636.667 365.318C637.478 365.318 638.136 364.728 638.136 364C638.136 363.272 637.478 362.682 636.667 362.682C635.855 362.682 635.197 363.272 635.197 364C635.197 364.728 635.855 365.318 636.667 365.318Z" fill="#3C3A40"/>
<path d="M694.389 365.318C695.201 365.318 695.858 364.728 695.858 364C695.858 363.272 695.201 362.682 694.389 362.682C693.577 362.682 692.919 363.272 692.919 364C692.919 364.728 693.577 365.318 694.389 365.318Z" fill="#3C3A40"/>
<path d="M752.111 365.318C752.923 365.318 753.581 364.728 753.581 364C753.581 363.272 752.923 362.682 752.111 362.682C751.299 362.682 750.641 363.272 750.641 364C750.641 364.728 751.299 365.318 752.111 365.318Z" fill="#3C3A40"/>
<path d="M809.833 365.318C810.645 365.318 811.303 364.728 811.303 364C811.303 363.272 810.645 362.682 809.833 362.682C809.022 362.682 808.364 363.272 808.364 364C808.364 364.728 809.022 365.318 809.833 365.318Z" fill="#3C3A40"/>
<path d="M867.556 365.318C868.367 365.318 869.025 364.728 869.025 364C869.025 363.272 868.367 362.682 867.556 362.682C866.744 362.682 866.086 363.272 866.086 364C866.086 364.728 866.744 365.318 867.556 365.318Z" fill="#3C3A40"/>
<path d="M925.278 365.318C926.089 365.318 926.747 364.728 926.747 364C926.747 363.272 926.089 362.682 925.278 362.682C924.466 362.682 923.808 363.272 923.808 364C923.808 364.728 924.466 365.318 925.278 365.318Z" fill="#3C3A40"/>
<path d="M983 365.318C983.812 365.318 984.47 364.728 984.47 364C984.47 363.272 983.812 362.682 983 362.682C982.188 362.682 981.53 363.272 981.53 364C981.53 364.728 982.188 365.318 983 365.318Z" fill="#3C3A40"/>
<path d="M1.72216 417.096C2.53386 417.096 3.19176 416.506 3.19176 415.778C3.19176 415.05 2.53386 414.46 1.72216 414.46C0.910464 414.46 0.252563 415.05 0.252563 415.778C0.252563 416.506 0.910464 417.096 1.72216 417.096Z" fill="#3C3A40"/>
<path d="M59.4443 417.096C60.2559 417.096 60.9139 416.506 60.9139 415.778C60.9139 415.05 60.2559 414.46 59.4443 414.46C58.6326 414.46 57.9746 415.05 57.9746 415.778C57.9746 416.506 58.6326 417.096 59.4443 417.096Z" fill="#3C3A40"/>
<path d="M117.167 417.096C117.978 417.096 118.636 416.506 118.636 415.778C118.636 415.05 117.978 414.46 117.167 414.46C116.355 414.46 115.697 415.05 115.697 415.778C115.697 416.506 116.355 417.096 117.167 417.096Z" fill="#3C3A40"/>
<path d="M174.889 417.096C175.7 417.096 176.358 416.506 176.358 415.778C176.358 415.05 175.7 414.46 174.889 414.46C174.077 414.46 173.419 415.05 173.419 415.778C173.419 416.506 174.077 417.096 174.889 417.096Z" fill="#3C3A40"/>
<path d="M232.611 417.096C233.423 417.096 234.081 416.506 234.081 415.778C234.081 415.05 233.423 414.46 232.611 414.46C231.799 414.46 231.141 415.05 231.141 415.778C231.141 416.506 231.799 417.096 232.611 417.096Z" fill="#3C3A40"/>
<path d="M290.333 417.096C291.145 417.096 291.803 416.506 291.803 415.778C291.803 415.05 291.145 414.46 290.333 414.46C289.522 414.46 288.864 415.05 288.864 415.778C288.864 416.506 289.522 417.096 290.333 417.096Z" fill="#3C3A40"/>
<path d="M348.055 417.096C348.867 417.096 349.525 416.506 349.525 415.778C349.525 415.05 348.867 414.46 348.055 414.46C347.244 414.46 346.586 415.05 346.586 415.778C346.586 416.506 347.244 417.096 348.055 417.096Z" fill="#3C3A40"/>
<path d="M405.778 417.096C406.589 417.096 407.247 416.506 407.247 415.778C407.247 415.05 406.589 414.46 405.778 414.46C404.966 414.46 404.308 415.05 404.308 415.778C404.308 416.506 404.966 417.096 405.778 417.096Z" fill="#3C3A40"/>
<path d="M463.5 417.096C464.312 417.096 464.97 416.506 464.97 415.778C464.97 415.05 464.312 414.46 463.5 414.46C462.688 414.46 462.03 415.05 462.03 415.778C462.03 416.506 462.688 417.096 463.5 417.096Z" fill="#3C3A40"/>
<path d="M521.222 417.096C522.034 417.096 522.692 416.506 522.692 415.778C522.692 415.05 522.034 414.46 521.222 414.46C520.41 414.46 519.752 415.05 519.752 415.778C519.752 416.506 520.41 417.096 521.222 417.096Z" fill="#3C3A40"/>
<path d="M578.944 417.096C579.756 417.096 580.414 416.506 580.414 415.778C580.414 415.05 579.756 414.46 578.944 414.46C578.133 414.46 577.475 415.05 577.475 415.778C577.475 416.506 578.133 417.096 578.944 417.096Z" fill="#3C3A40"/>
<path d="M636.667 417.096C637.478 417.096 638.136 416.506 638.136 415.778C638.136 415.05 637.478 414.46 636.667 414.46C635.855 414.46 635.197 415.05 635.197 415.778C635.197 416.506 635.855 417.096 636.667 417.096Z" fill="#3C3A40"/>
<path d="M694.389 417.096C695.201 417.096 695.858 416.506 695.858 415.778C695.858 415.05 695.201 414.46 694.389 414.46C693.577 414.46 692.919 415.05 692.919 415.778C692.919 416.506 693.577 417.096 694.389 417.096Z" fill="#3C3A40"/>
<path d="M752.111 417.096C752.923 417.096 753.581 416.506 753.581 415.778C753.581 415.05 752.923 414.46 752.111 414.46C751.299 414.46 750.641 415.05 750.641 415.778C750.641 416.506 751.299 417.096 752.111 417.096Z" fill="#3C3A40"/>
<path d="M809.833 417.096C810.645 417.096 811.303 416.506 811.303 415.778C811.303 415.05 810.645 414.46 809.833 414.46C809.022 414.46 808.364 415.05 808.364 415.778C808.364 416.506 809.022 417.096 809.833 417.096Z" fill="#3C3A40"/>
<path d="M867.556 417.096C868.367 417.096 869.025 416.506 869.025 415.778C869.025 415.05 868.367 414.46 867.556 414.46C866.744 414.46 866.086 415.05 866.086 415.778C866.086 416.506 866.744 417.096 867.556 417.096Z" fill="#3C3A40"/>
<path d="M925.278 417.096C926.089 417.096 926.747 416.506 926.747 415.778C926.747 415.05 926.089 414.46 925.278 414.46C924.466 414.46 923.808 415.05 923.808 415.778C923.808 416.506 924.466 417.096 925.278 417.096Z" fill="#3C3A40"/>
<path d="M983 417.096C983.812 417.096 984.47 416.506 984.47 415.778C984.47 415.05 983.812 414.46 983 414.46C982.188 414.46 981.53 415.05 981.53 415.778C981.53 416.506 982.188 417.096 983 417.096Z" fill="#3C3A40"/>
<path d="M1.72216 468.874C2.53386 468.874 3.19176 468.284 3.19176 467.556C3.19176 466.828 2.53386 466.237 1.72216 466.237C0.910464 466.237 0.252563 466.828 0.252563 467.556C0.252563 468.284 0.910464 468.874 1.72216 468.874Z" fill="#3C3A40"/>
<path d="M59.4443 468.874C60.2559 468.874 60.9139 468.284 60.9139 467.556C60.9139 466.828 60.2559 466.237 59.4443 466.237C58.6326 466.237 57.9746 466.828 57.9746 467.556C57.9746 468.284 58.6326 468.874 59.4443 468.874Z" fill="#3C3A40"/>
<path d="M117.167 468.874C117.978 468.874 118.636 468.284 118.636 467.556C118.636 466.828 117.978 466.237 117.167 466.237C116.355 466.237 115.697 466.828 115.697 467.556C115.697 468.284 116.355 468.874 117.167 468.874Z" fill="#3C3A40"/>
<path d="M174.889 468.874C175.7 468.874 176.358 468.284 176.358 467.556C176.358 466.828 175.7 466.237 174.889 466.237C174.077 466.237 173.419 466.828 173.419 467.556C173.419 468.284 174.077 468.874 174.889 468.874Z" fill="#3C3A40"/>
<path d="M232.611 468.874C233.423 468.874 234.081 468.284 234.081 467.556C234.081 466.828 233.423 466.237 232.611 466.237C231.799 466.237 231.141 466.828 231.141 467.556C231.141 468.284 231.799 468.874 232.611 468.874Z" fill="#3C3A40"/>
<path d="M290.333 468.874C291.145 468.874 291.803 468.284 291.803 467.556C291.803 466.828 291.145 466.237 290.333 466.237C289.522 466.237 288.864 466.828 288.864 467.556C288.864 468.284 289.522 468.874 290.333 468.874Z" fill="#3C3A40"/>
<path d="M348.055 468.874C348.867 468.874 349.525 468.284 349.525 467.556C349.525 466.828 348.867 466.237 348.055 466.237C347.244 466.237 346.586 466.828 346.586 467.556C346.586 468.284 347.244 468.874 348.055 468.874Z" fill="#3C3A40"/>
<path d="M405.778 468.874C406.589 468.874 407.247 468.284 407.247 467.556C407.247 466.828 406.589 466.237 405.778 466.237C404.966 466.237 404.308 466.828 404.308 467.556C404.308 468.284 404.966 468.874 405.778 468.874Z" fill="#3C3A40"/>
<path d="M463.5 468.874C464.312 468.874 464.97 468.284 464.97 467.556C464.97 466.828 464.312 466.237 463.5 466.237C462.688 466.237 462.03 466.828 462.03 467.556C462.03 468.284 462.688 468.874 463.5 468.874Z" fill="#3C3A40"/>
<path d="M521.222 468.874C522.034 468.874 522.692 468.284 522.692 467.556C522.692 466.828 522.034 466.237 521.222 466.237C520.41 466.237 519.752 466.828 519.752 467.556C519.752 468.284 520.41 468.874 521.222 468.874Z" fill="#3C3A40"/>
<path d="M578.944 468.874C579.756 468.874 580.414 468.284 580.414 467.556C580.414 466.828 579.756 466.237 578.944 466.237C578.133 466.237 577.475 466.828 577.475 467.556C577.475 468.284 578.133 468.874 578.944 468.874Z" fill="#3C3A40"/>
<path d="M636.667 468.874C637.478 468.874 638.136 468.284 638.136 467.556C638.136 466.828 637.478 466.237 636.667 466.237C635.855 466.237 635.197 466.828 635.197 467.556C635.197 468.284 635.855 468.874 636.667 468.874Z" fill="#3C3A40"/>
<path d="M694.389 468.874C695.201 468.874 695.858 468.284 695.858 467.556C695.858 466.828 695.201 466.237 694.389 466.237C693.577 466.237 692.919 466.828 692.919 467.556C692.919 468.284 693.577 468.874 694.389 468.874Z" fill="#3C3A40"/>
<path d="M752.111 468.874C752.923 468.874 753.581 468.284 753.581 467.556C753.581 466.828 752.923 466.237 752.111 466.237C751.299 466.237 750.641 466.828 750.641 467.556C750.641 468.284 751.299 468.874 752.111 468.874Z" fill="#3C3A40"/>
<path d="M809.833 468.874C810.645 468.874 811.303 468.284 811.303 467.556C811.303 466.828 810.645 466.237 809.833 466.237C809.022 466.237 808.364 466.828 808.364 467.556C808.364 468.284 809.022 468.874 809.833 468.874Z" fill="#3C3A40"/>
<path d="M867.556 468.874C868.367 468.874 869.025 468.284 869.025 467.556C869.025 466.828 868.367 466.237 867.556 466.237C866.744 466.237 866.086 466.828 866.086 467.556C866.086 468.284 866.744 468.874 867.556 468.874Z" fill="#3C3A40"/>
<path d="M925.278 468.874C926.089 468.874 926.747 468.284 926.747 467.556C926.747 466.828 926.089 466.237 925.278 466.237C924.466 466.237 923.808 466.828 923.808 467.556C923.808 468.284 924.466 468.874 925.278 468.874Z" fill="#3C3A40"/>
<path d="M983 468.874C983.812 468.874 984.47 468.284 984.47 467.556C984.47 466.828 983.812 466.237 983 466.237C982.188 466.237 981.53 466.828 981.53 467.556C981.53 468.284 982.188 468.874 983 468.874Z" fill="#3C3A40"/>
<path d="M1.72216 520.652C2.53386 520.652 3.19176 520.061 3.19176 519.333C3.19176 518.605 2.53386 518.015 1.72216 518.015C0.910464 518.015 0.252563 518.605 0.252563 519.333C0.252563 520.061 0.910464 520.652 1.72216 520.652Z" fill="#3C3A40"/>
<path d="M59.4443 520.652C60.2559 520.652 60.9139 520.061 60.9139 519.333C60.9139 518.605 60.2559 518.015 59.4443 518.015C58.6326 518.015 57.9746 518.605 57.9746 519.333C57.9746 520.061 58.6326 520.652 59.4443 520.652Z" fill="#3C3A40"/>
<path d="M117.167 520.652C117.978 520.652 118.636 520.061 118.636 519.333C118.636 518.605 117.978 518.015 117.167 518.015C116.355 518.015 115.697 518.605 115.697 519.333C115.697 520.061 116.355 520.652 117.167 520.652Z" fill="#3C3A40"/>
<path d="M174.889 520.652C175.7 520.652 176.358 520.061 176.358 519.333C176.358 518.605 175.7 518.015 174.889 518.015C174.077 518.015 173.419 518.605 173.419 519.333C173.419 520.061 174.077 520.652 174.889 520.652Z" fill="#3C3A40"/>
<path d="M232.611 520.652C233.423 520.652 234.081 520.061 234.081 519.333C234.081 518.605 233.423 518.015 232.611 518.015C231.799 518.015 231.141 518.605 231.141 519.333C231.141 520.061 231.799 520.652 232.611 520.652Z" fill="#3C3A40"/>
<path d="M290.333 520.652C291.145 520.652 291.803 520.061 291.803 519.333C291.803 518.605 291.145 518.015 290.333 518.015C289.522 518.015 288.864 518.605 288.864 519.333C288.864 520.061 289.522 520.652 290.333 520.652Z" fill="#3C3A40"/>
<path d="M348.055 520.652C348.867 520.652 349.525 520.061 349.525 519.333C349.525 518.605 348.867 518.015 348.055 518.015C347.244 518.015 346.586 518.605 346.586 519.333C346.586 520.061 347.244 520.652 348.055 520.652Z" fill="#3C3A40"/>
<path d="M405.778 520.652C406.589 520.652 407.247 520.061 407.247 519.333C407.247 518.605 406.589 518.015 405.778 518.015C404.966 518.015 404.308 518.605 404.308 519.333C404.308 520.061 404.966 520.652 405.778 520.652Z" fill="#3C3A40"/>
<path d="M463.5 520.652C464.312 520.652 464.97 520.061 464.97 519.333C464.97 518.605 464.312 518.015 463.5 518.015C462.688 518.015 462.03 518.605 462.03 519.333C462.03 520.061 462.688 520.652 463.5 520.652Z" fill="#3C3A40"/>
<path d="M521.222 520.652C522.034 520.652 522.692 520.061 522.692 519.333C522.692 518.605 522.034 518.015 521.222 518.015C520.41 518.015 519.752 518.605 519.752 519.333C519.752 520.061 520.41 520.652 521.222 520.652Z" fill="#3C3A40"/>
<path d="M578.944 520.652C579.756 520.652 580.414 520.061 580.414 519.333C580.414 518.605 579.756 518.015 578.944 518.015C578.133 518.015 577.475 518.605 577.475 519.333C577.475 520.061 578.133 520.652 578.944 520.652Z" fill="#3C3A40"/>
<path d="M636.667 520.652C637.478 520.652 638.136 520.061 638.136 519.333C638.136 518.605 637.478 518.015 636.667 518.015C635.855 518.015 635.197 518.605 635.197 519.333C635.197 520.061 635.855 520.652 636.667 520.652Z" fill="#3C3A40"/>
<path d="M694.389 520.652C695.201 520.652 695.858 520.061 695.858 519.333C695.858 518.605 695.201 518.015 694.389 518.015C693.577 518.015 692.919 518.605 692.919 519.333C692.919 520.061 693.577 520.652 694.389 520.652Z" fill="#3C3A40"/>
<path d="M752.111 520.652C752.923 520.652 753.581 520.061 753.581 519.333C753.581 518.605 752.923 518.015 752.111 518.015C751.299 518.015 750.641 518.605 750.641 519.333C750.641 520.061 751.299 520.652 752.111 520.652Z" fill="#3C3A40"/>
<path d="M809.833 520.652C810.645 520.652 811.303 520.061 811.303 519.333C811.303 518.605 810.645 518.015 809.833 518.015C809.022 518.015 808.364 518.605 808.364 519.333C808.364 520.061 809.022 520.652 809.833 520.652Z" fill="#3C3A40"/>
<path d="M867.556 520.652C868.367 520.652 869.025 520.061 869.025 519.333C869.025 518.605 868.367 518.015 867.556 518.015C866.744 518.015 866.086 518.605 866.086 519.333C866.086 520.061 866.744 520.652 867.556 520.652Z" fill="#3C3A40"/>
<path d="M925.278 520.652C926.089 520.652 926.747 520.061 926.747 519.333C926.747 518.605 926.089 518.015 925.278 518.015C924.466 518.015 923.808 518.605 923.808 519.333C923.808 520.061 924.466 520.652 925.278 520.652Z" fill="#3C3A40"/>
<path d="M983 520.652C983.812 520.652 984.47 520.061 984.47 519.333C984.47 518.605 983.812 518.015 983 518.015C982.188 518.015 981.53 518.605 981.53 519.333C981.53 520.061 982.188 520.652 983 520.652Z" fill="#3C3A40"/>
<path d="M1.72216 572.43C2.53386 572.43 3.19176 571.839 3.19176 571.111C3.19176 570.383 2.53386 569.793 1.72216 569.793C0.910464 569.793 0.252563 570.383 0.252563 571.111C0.252563 571.839 0.910464 572.43 1.72216 572.43Z" fill="#3C3A40"/>
<path d="M59.4443 572.43C60.2559 572.43 60.9139 571.839 60.9139 571.111C60.9139 570.383 60.2559 569.793 59.4443 569.793C58.6326 569.793 57.9746 570.383 57.9746 571.111C57.9746 571.839 58.6326 572.43 59.4443 572.43Z" fill="#3C3A40"/>
<path d="M117.167 572.43C117.978 572.43 118.636 571.839 118.636 571.111C118.636 570.383 117.978 569.793 117.167 569.793C116.355 569.793 115.697 570.383 115.697 571.111C115.697 571.839 116.355 572.43 117.167 572.43Z" fill="#3C3A40"/>
<path d="M174.889 572.43C175.7 572.43 176.358 571.839 176.358 571.111C176.358 570.383 175.7 569.793 174.889 569.793C174.077 569.793 173.419 570.383 173.419 571.111C173.419 571.839 174.077 572.43 174.889 572.43Z" fill="#3C3A40"/>
<path d="M232.611 572.43C233.423 572.43 234.081 571.839 234.081 571.111C234.081 570.383 233.423 569.793 232.611 569.793C231.799 569.793 231.141 570.383 231.141 571.111C231.141 571.839 231.799 572.43 232.611 572.43Z" fill="#3C3A40"/>
<path d="M290.333 572.43C291.145 572.43 291.803 571.839 291.803 571.111C291.803 570.383 291.145 569.793 290.333 569.793C289.522 569.793 288.864 570.383 288.864 571.111C288.864 571.839 289.522 572.43 290.333 572.43Z" fill="#3C3A40"/>
<path d="M348.055 572.43C348.867 572.43 349.525 571.839 349.525 571.111C349.525 570.383 348.867 569.793 348.055 569.793C347.244 569.793 346.586 570.383 346.586 571.111C346.586 571.839 347.244 572.43 348.055 572.43Z" fill="#3C3A40"/>
<path d="M405.778 572.43C406.589 572.43 407.247 571.839 407.247 571.111C407.247 570.383 406.589 569.793 405.778 569.793C404.966 569.793 404.308 570.383 404.308 571.111C404.308 571.839 404.966 572.43 405.778 572.43Z" fill="#3C3A40"/>
<path d="M463.5 572.43C464.312 572.43 464.97 571.839 464.97 571.111C464.97 570.383 464.312 569.793 463.5 569.793C462.688 569.793 462.03 570.383 462.03 571.111C462.03 571.839 462.688 572.43 463.5 572.43Z" fill="#3C3A40"/>
<path d="M521.222 572.43C522.034 572.43 522.692 571.839 522.692 571.111C522.692 570.383 522.034 569.793 521.222 569.793C520.41 569.793 519.752 570.383 519.752 571.111C519.752 571.839 520.41 572.43 521.222 572.43Z" fill="#3C3A40"/>
<path d="M578.944 572.43C579.756 572.43 580.414 571.839 580.414 571.111C580.414 570.383 579.756 569.793 578.944 569.793C578.133 569.793 577.475 570.383 577.475 571.111C577.475 571.839 578.133 572.43 578.944 572.43Z" fill="#3C3A40"/>
<path d="M636.667 572.43C637.478 572.43 638.136 571.839 638.136 571.111C638.136 570.383 637.478 569.793 636.667 569.793C635.855 569.793 635.197 570.383 635.197 571.111C635.197 571.839 635.855 572.43 636.667 572.43Z" fill="#3C3A40"/>
<path d="M694.389 572.43C695.201 572.43 695.858 571.839 695.858 571.111C695.858 570.383 695.201 569.793 694.389 569.793C693.577 569.793 692.919 570.383 692.919 571.111C692.919 571.839 693.577 572.43 694.389 572.43Z" fill="#3C3A40"/>
<path d="M752.111 572.43C752.923 572.43 753.581 571.839 753.581 571.111C753.581 570.383 752.923 569.793 752.111 569.793C751.299 569.793 750.641 570.383 750.641 571.111C750.641 571.839 751.299 572.43 752.111 572.43Z" fill="#3C3A40"/>
<path d="M809.833 572.43C810.645 572.43 811.303 571.839 811.303 571.111C811.303 570.383 810.645 569.793 809.833 569.793C809.022 569.793 808.364 570.383 808.364 571.111C808.364 571.839 809.022 572.43 809.833 572.43Z" fill="#3C3A40"/>
<path d="M867.556 572.43C868.367 572.43 869.025 571.839 869.025 571.111C869.025 570.383 868.367 569.793 867.556 569.793C866.744 569.793 866.086 570.383 866.086 571.111C866.086 571.839 866.744 572.43 867.556 572.43Z" fill="#3C3A40"/>
<path d="M925.278 572.43C926.089 572.43 926.747 571.839 926.747 571.111C926.747 570.383 926.089 569.793 925.278 569.793C924.466 569.793 923.808 570.383 923.808 571.111C923.808 571.839 924.466 572.43 925.278 572.43Z" fill="#3C3A40"/>
<path d="M983 572.43C983.812 572.43 984.47 571.839 984.47 571.111C984.47 570.383 983.812 569.793 983 569.793C982.188 569.793 981.53 570.383 981.53 571.111C981.53 571.839 982.188 572.43 983 572.43Z" fill="#3C3A40"/>
<path d="M1.72216 624.207C2.53386 624.207 3.19176 623.617 3.19176 622.889C3.19176 622.161 2.53386 621.571 1.72216 621.571C0.910464 621.571 0.252563 622.161 0.252563 622.889C0.252563 623.617 0.910464 624.207 1.72216 624.207Z" fill="#3C3A40"/>
<path d="M59.4443 624.207C60.2559 624.207 60.9139 623.617 60.9139 622.889C60.9139 622.161 60.2559 621.571 59.4443 621.571C58.6326 621.571 57.9746 622.161 57.9746 622.889C57.9746 623.617 58.6326 624.207 59.4443 624.207Z" fill="#3C3A40"/>
<path d="M117.167 624.207C117.978 624.207 118.636 623.617 118.636 622.889C118.636 622.161 117.978 621.571 117.167 621.571C116.355 621.571 115.697 622.161 115.697 622.889C115.697 623.617 116.355 624.207 117.167 624.207Z" fill="#3C3A40"/>
<path d="M174.889 624.207C175.7 624.207 176.358 623.617 176.358 622.889C176.358 622.161 175.7 621.571 174.889 621.571C174.077 621.571 173.419 622.161 173.419 622.889C173.419 623.617 174.077 624.207 174.889 624.207Z" fill="#3C3A40"/>
<path d="M232.611 624.207C233.423 624.207 234.081 623.617 234.081 622.889C234.081 622.161 233.423 621.571 232.611 621.571C231.799 621.571 231.141 622.161 231.141 622.889C231.141 623.617 231.799 624.207 232.611 624.207Z" fill="#3C3A40"/>
<path d="M290.333 624.207C291.145 624.207 291.803 623.617 291.803 622.889C291.803 622.161 291.145 621.571 290.333 621.571C289.522 621.571 288.864 622.161 288.864 622.889C288.864 623.617 289.522 624.207 290.333 624.207Z" fill="#3C3A40"/>
<path d="M348.055 624.207C348.867 624.207 349.525 623.617 349.525 622.889C349.525 622.161 348.867 621.571 348.055 621.571C347.244 621.571 346.586 622.161 346.586 622.889C346.586 623.617 347.244 624.207 348.055 624.207Z" fill="#3C3A40"/>
<path d="M405.778 624.207C406.589 624.207 407.247 623.617 407.247 622.889C407.247 622.161 406.589 621.571 405.778 621.571C404.966 621.571 404.308 622.161 404.308 622.889C404.308 623.617 404.966 624.207 405.778 624.207Z" fill="#3C3A40"/>
<path d="M463.5 624.207C464.312 624.207 464.97 623.617 464.97 622.889C464.97 622.161 464.312 621.571 463.5 621.571C462.688 621.571 462.03 622.161 462.03 622.889C462.03 623.617 462.688 624.207 463.5 624.207Z" fill="#3C3A40"/>
<path d="M521.222 624.207C522.034 624.207 522.692 623.617 522.692 622.889C522.692 622.161 522.034 621.571 521.222 621.571C520.41 621.571 519.752 622.161 519.752 622.889C519.752 623.617 520.41 624.207 521.222 624.207Z" fill="#3C3A40"/>
<path d="M578.944 624.207C579.756 624.207 580.414 623.617 580.414 622.889C580.414 622.161 579.756 621.571 578.944 621.571C578.133 621.571 577.475 622.161 577.475 622.889C577.475 623.617 578.133 624.207 578.944 624.207Z" fill="#3C3A40"/>
<path d="M636.667 624.207C637.478 624.207 638.136 623.617 638.136 622.889C638.136 622.161 637.478 621.571 636.667 621.571C635.855 621.571 635.197 622.161 635.197 622.889C635.197 623.617 635.855 624.207 636.667 624.207Z" fill="#3C3A40"/>
<path d="M694.389 624.207C695.201 624.207 695.858 623.617 695.858 622.889C695.858 622.161 695.201 621.571 694.389 621.571C693.577 621.571 692.919 622.161 692.919 622.889C692.919 623.617 693.577 624.207 694.389 624.207Z" fill="#3C3A40"/>
<path d="M752.111 624.207C752.923 624.207 753.581 623.617 753.581 622.889C753.581 622.161 752.923 621.571 752.111 621.571C751.299 621.571 750.641 622.161 750.641 622.889C750.641 623.617 751.299 624.207 752.111 624.207Z" fill="#3C3A40"/>
<path d="M809.833 624.207C810.645 624.207 811.303 623.617 811.303 622.889C811.303 622.161 810.645 621.571 809.833 621.571C809.022 621.571 808.364 622.161 808.364 622.889C808.364 623.617 809.022 624.207 809.833 624.207Z" fill="#3C3A40"/>
<path d="M867.556 624.207C868.367 624.207 869.025 623.617 869.025 622.889C869.025 622.161 868.367 621.571 867.556 621.571C866.744 621.571 866.086 622.161 866.086 622.889C866.086 623.617 866.744 624.207 867.556 624.207Z" fill="#3C3A40"/>
<path d="M925.278 624.207C926.089 624.207 926.747 623.617 926.747 622.889C926.747 622.161 926.089 621.571 925.278 621.571C924.466 621.571 923.808 622.161 923.808 622.889C923.808 623.617 924.466 624.207 925.278 624.207Z" fill="#3C3A40"/>
<path d="M983 624.207C983.812 624.207 984.47 623.617 984.47 622.889C984.47 622.161 983.812 621.571 983 621.571C982.188 621.571 981.53 622.161 981.53 622.889C981.53 623.617 982.188 624.207 983 624.207Z" fill="#3C3A40"/>
<path d="M1.72216 675.985C2.53386 675.985 3.19176 675.395 3.19176 674.667C3.19176 673.939 2.53386 673.348 1.72216 673.348C0.910464 673.348 0.252563 673.939 0.252563 674.667C0.252563 675.395 0.910464 675.985 1.72216 675.985Z" fill="#3C3A40"/>
<path d="M59.4443 675.985C60.2559 675.985 60.9139 675.395 60.9139 674.667C60.9139 673.939 60.2559 673.348 59.4443 673.348C58.6326 673.348 57.9746 673.939 57.9746 674.667C57.9746 675.395 58.6326 675.985 59.4443 675.985Z" fill="#3C3A40"/>
<path d="M117.167 675.985C117.978 675.985 118.636 675.395 118.636 674.667C118.636 673.939 117.978 673.348 117.167 673.348C116.355 673.348 115.697 673.939 115.697 674.667C115.697 675.395 116.355 675.985 117.167 675.985Z" fill="#3C3A40"/>
<path d="M174.889 675.985C175.7 675.985 176.358 675.395 176.358 674.667C176.358 673.939 175.7 673.348 174.889 673.348C174.077 673.348 173.419 673.939 173.419 674.667C173.419 675.395 174.077 675.985 174.889 675.985Z" fill="#3C3A40"/>
<path d="M232.611 675.985C233.423 675.985 234.081 675.395 234.081 674.667C234.081 673.939 233.423 673.348 232.611 673.348C231.799 673.348 231.141 673.939 231.141 674.667C231.141 675.395 231.799 675.985 232.611 675.985Z" fill="#3C3A40"/>
<path d="M290.333 675.985C291.145 675.985 291.803 675.395 291.803 674.667C291.803 673.939 291.145 673.348 290.333 673.348C289.522 673.348 288.864 673.939 288.864 674.667C288.864 675.395 289.522 675.985 290.333 675.985Z" fill="#3C3A40"/>
<path d="M348.055 675.985C348.867 675.985 349.525 675.395 349.525 674.667C349.525 673.939 348.867 673.348 348.055 673.348C347.244 673.348 346.586 673.939 346.586 674.667C346.586 675.395 347.244 675.985 348.055 675.985Z" fill="#3C3A40"/>
<path d="M405.778 675.985C406.589 675.985 407.247 675.395 407.247 674.667C407.247 673.939 406.589 673.348 405.778 673.348C404.966 673.348 404.308 673.939 404.308 674.667C404.308 675.395 404.966 675.985 405.778 675.985Z" fill="#3C3A40"/>
<path d="M463.5 675.985C464.312 675.985 464.97 675.395 464.97 674.667C464.97 673.939 464.312 673.348 463.5 673.348C462.688 673.348 462.03 673.939 462.03 674.667C462.03 675.395 462.688 675.985 463.5 675.985Z" fill="#3C3A40"/>
<path d="M521.222 675.985C522.034 675.985 522.692 675.395 522.692 674.667C522.692 673.939 522.034 673.348 521.222 673.348C520.41 673.348 519.752 673.939 519.752 674.667C519.752 675.395 520.41 675.985 521.222 675.985Z" fill="#3C3A40"/>
<path d="M578.944 675.985C579.756 675.985 580.414 675.395 580.414 674.667C580.414 673.939 579.756 673.348 578.944 673.348C578.133 673.348 577.475 673.939 577.475 674.667C577.475 675.395 578.133 675.985 578.944 675.985Z" fill="#3C3A40"/>
<path d="M636.667 675.985C637.478 675.985 638.136 675.395 638.136 674.667C638.136 673.939 637.478 673.348 636.667 673.348C635.855 673.348 635.197 673.939 635.197 674.667C635.197 675.395 635.855 675.985 636.667 675.985Z" fill="#3C3A40"/>
<path d="M694.389 675.985C695.201 675.985 695.858 675.395 695.858 674.667C695.858 673.939 695.201 673.348 694.389 673.348C693.577 673.348 692.919 673.939 692.919 674.667C692.919 675.395 693.577 675.985 694.389 675.985Z" fill="#3C3A40"/>
<path d="M752.111 675.985C752.923 675.985 753.581 675.395 753.581 674.667C753.581 673.939 752.923 673.348 752.111 673.348C751.299 673.348 750.641 673.939 750.641 674.667C750.641 675.395 751.299 675.985 752.111 675.985Z" fill="#3C3A40"/>
<path d="M809.833 675.985C810.645 675.985 811.303 675.395 811.303 674.667C811.303 673.939 810.645 673.348 809.833 673.348C809.022 673.348 808.364 673.939 808.364 674.667C808.364 675.395 809.022 675.985 809.833 675.985Z" fill="#3C3A40"/>
<path d="M867.556 675.985C868.367 675.985 869.025 675.395 869.025 674.667C869.025 673.939 868.367 673.348 867.556 673.348C866.744 673.348 866.086 673.939 866.086 674.667C866.086 675.395 866.744 675.985 867.556 675.985Z" fill="#3C3A40"/>
<path d="M925.278 675.985C926.089 675.985 926.747 675.395 926.747 674.667C926.747 673.939 926.089 673.348 925.278 673.348C924.466 673.348 923.808 673.939 923.808 674.667C923.808 675.395 924.466 675.985 925.278 675.985Z" fill="#3C3A40"/>
<path d="M983 675.985C983.812 675.985 984.47 675.395 984.47 674.667C984.47 673.939 983.812 673.348 983 673.348C982.188 673.348 981.53 673.939 981.53 674.667C981.53 675.395 982.188 675.985 983 675.985Z" fill="#3C3A40"/>
<path d="M1.72216 727.763C2.53386 727.763 3.19176 727.173 3.19176 726.445C3.19176 725.716 2.53386 725.126 1.72216 725.126C0.910464 725.126 0.252563 725.716 0.252563 726.445C0.252563 727.173 0.910464 727.763 1.72216 727.763Z" fill="#3C3A40"/>
<path d="M59.4443 727.763C60.2559 727.763 60.9139 727.173 60.9139 726.445C60.9139 725.716 60.2559 725.126 59.4443 725.126C58.6326 725.126 57.9746 725.716 57.9746 726.445C57.9746 727.173 58.6326 727.763 59.4443 727.763Z" fill="#3C3A40"/>
<path d="M117.167 727.763C117.978 727.763 118.636 727.173 118.636 726.445C118.636 725.716 117.978 725.126 117.167 725.126C116.355 725.126 115.697 725.716 115.697 726.445C115.697 727.173 116.355 727.763 117.167 727.763Z" fill="#3C3A40"/>
<path d="M174.889 727.763C175.7 727.763 176.358 727.173 176.358 726.445C176.358 725.716 175.7 725.126 174.889 725.126C174.077 725.126 173.419 725.716 173.419 726.445C173.419 727.173 174.077 727.763 174.889 727.763Z" fill="#3C3A40"/>
<path d="M232.611 727.763C233.423 727.763 234.081 727.173 234.081 726.445C234.081 725.716 233.423 725.126 232.611 725.126C231.799 725.126 231.141 725.716 231.141 726.445C231.141 727.173 231.799 727.763 232.611 727.763Z" fill="#3C3A40"/>
<path d="M290.333 727.763C291.145 727.763 291.803 727.173 291.803 726.445C291.803 725.716 291.145 725.126 290.333 725.126C289.522 725.126 288.864 725.716 288.864 726.445C288.864 727.173 289.522 727.763 290.333 727.763Z" fill="#3C3A40"/>
<path d="M348.055 727.763C348.867 727.763 349.525 727.173 349.525 726.445C349.525 725.716 348.867 725.126 348.055 725.126C347.244 725.126 346.586 725.716 346.586 726.445C346.586 727.173 347.244 727.763 348.055 727.763Z" fill="#3C3A40"/>
<path d="M405.778 727.763C406.589 727.763 407.247 727.173 407.247 726.445C407.247 725.716 406.589 725.126 405.778 725.126C404.966 725.126 404.308 725.716 404.308 726.445C404.308 727.173 404.966 727.763 405.778 727.763Z" fill="#3C3A40"/>
<path d="M463.5 727.763C464.312 727.763 464.97 727.173 464.97 726.445C464.97 725.716 464.312 725.126 463.5 725.126C462.688 725.126 462.03 725.716 462.03 726.445C462.03 727.173 462.688 727.763 463.5 727.763Z" fill="#3C3A40"/>
<path d="M521.222 727.763C522.034 727.763 522.692 727.173 522.692 726.445C522.692 725.716 522.034 725.126 521.222 725.126C520.41 725.126 519.752 725.716 519.752 726.445C519.752 727.173 520.41 727.763 521.222 727.763Z" fill="#3C3A40"/>
<path d="M578.944 727.763C579.756 727.763 580.414 727.173 580.414 726.445C580.414 725.716 579.756 725.126 578.944 725.126C578.133 725.126 577.475 725.716 577.475 726.445C577.475 727.173 578.133 727.763 578.944 727.763Z" fill="#3C3A40"/>
<path d="M636.667 727.763C637.478 727.763 638.136 727.173 638.136 726.445C638.136 725.716 637.478 725.126 636.667 725.126C635.855 725.126 635.197 725.716 635.197 726.445C635.197 727.173 635.855 727.763 636.667 727.763Z" fill="#3C3A40"/>
<path d="M694.389 727.763C695.201 727.763 695.858 727.173 695.858 726.445C695.858 725.716 695.201 725.126 694.389 725.126C693.577 725.126 692.919 725.716 692.919 726.445C692.919 727.173 693.577 727.763 694.389 727.763Z" fill="#3C3A40"/>
<path d="M752.111 727.763C752.923 727.763 753.581 727.173 753.581 726.445C753.581 725.716 752.923 725.126 752.111 725.126C751.299 725.126 750.641 725.716 750.641 726.445C750.641 727.173 751.299 727.763 752.111 727.763Z" fill="#3C3A40"/>
<path d="M809.833 727.763C810.645 727.763 811.303 727.173 811.303 726.445C811.303 725.716 810.645 725.126 809.833 725.126C809.022 725.126 808.364 725.716 808.364 726.445C808.364 727.173 809.022 727.763 809.833 727.763Z" fill="#3C3A40"/>
<path d="M867.556 727.763C868.367 727.763 869.025 727.173 869.025 726.445C869.025 725.716 868.367 725.126 867.556 725.126C866.744 725.126 866.086 725.716 866.086 726.445C866.086 727.173 866.744 727.763 867.556 727.763Z" fill="#3C3A40"/>
<path d="M925.278 727.763C926.089 727.763 926.747 727.173 926.747 726.445C926.747 725.716 926.089 725.126 925.278 725.126C924.466 725.126 923.808 725.716 923.808 726.445C923.808 727.173 924.466 727.763 925.278 727.763Z" fill="#3C3A40"/>
<path d="M983 727.763C983.812 727.763 984.47 727.173 984.47 726.445C984.47 725.716 983.812 725.126 983 725.126C982.188 725.126 981.53 725.716 981.53 726.445C981.53 727.173 982.188 727.763 983 727.763Z" fill="#3C3A40"/>
<path d="M1.72216 779.54C2.53386 779.54 3.19176 778.95 3.19176 778.222C3.19176 777.494 2.53386 776.904 1.72216 776.904C0.910464 776.904 0.252563 777.494 0.252563 778.222C0.252563 778.95 0.910464 779.54 1.72216 779.54Z" fill="#3C3A40"/>
<path d="M59.4443 779.54C60.2559 779.54 60.9139 778.95 60.9139 778.222C60.9139 777.494 60.2559 776.904 59.4443 776.904C58.6326 776.904 57.9746 777.494 57.9746 778.222C57.9746 778.95 58.6326 779.54 59.4443 779.54Z" fill="#3C3A40"/>
<path d="M117.167 779.54C117.978 779.54 118.636 778.95 118.636 778.222C118.636 777.494 117.978 776.904 117.167 776.904C116.355 776.904 115.697 777.494 115.697 778.222C115.697 778.95 116.355 779.54 117.167 779.54Z" fill="#3C3A40"/>
<path d="M174.889 779.54C175.7 779.54 176.358 778.95 176.358 778.222C176.358 777.494 175.7 776.904 174.889 776.904C174.077 776.904 173.419 777.494 173.419 778.222C173.419 778.95 174.077 779.54 174.889 779.54Z" fill="#3C3A40"/>
<path d="M232.611 779.54C233.423 779.54 234.081 778.95 234.081 778.222C234.081 777.494 233.423 776.904 232.611 776.904C231.799 776.904 231.141 777.494 231.141 778.222C231.141 778.95 231.799 779.54 232.611 779.54Z" fill="#3C3A40"/>
<path d="M290.333 779.54C291.145 779.54 291.803 778.95 291.803 778.222C291.803 777.494 291.145 776.904 290.333 776.904C289.522 776.904 288.864 777.494 288.864 778.222C288.864 778.95 289.522 779.54 290.333 779.54Z" fill="#3C3A40"/>
<path d="M348.055 779.54C348.867 779.54 349.525 778.95 349.525 778.222C349.525 777.494 348.867 776.904 348.055 776.904C347.244 776.904 346.586 777.494 346.586 778.222C346.586 778.95 347.244 779.54 348.055 779.54Z" fill="#3C3A40"/>
<path d="M405.778 779.54C406.589 779.54 407.247 778.95 407.247 778.222C407.247 777.494 406.589 776.904 405.778 776.904C404.966 776.904 404.308 777.494 404.308 778.222C404.308 778.95 404.966 779.54 405.778 779.54Z" fill="#3C3A40"/>
<path d="M463.5 779.54C464.312 779.54 464.97 778.95 464.97 778.222C464.97 777.494 464.312 776.904 463.5 776.904C462.688 776.904 462.03 777.494 462.03 778.222C462.03 778.95 462.688 779.54 463.5 779.54Z" fill="#3C3A40"/>
<path d="M521.222 779.54C522.034 779.54 522.692 778.95 522.692 778.222C522.692 777.494 522.034 776.904 521.222 776.904C520.41 776.904 519.752 777.494 519.752 778.222C519.752 778.95 520.41 779.54 521.222 779.54Z" fill="#3C3A40"/>
<path d="M578.944 779.54C579.756 779.54 580.414 778.95 580.414 778.222C580.414 777.494 579.756 776.904 578.944 776.904C578.133 776.904 577.475 777.494 577.475 778.222C577.475 778.95 578.133 779.54 578.944 779.54Z" fill="#3C3A40"/>
<path d="M636.667 779.54C637.478 779.54 638.136 778.95 638.136 778.222C638.136 777.494 637.478 776.904 636.667 776.904C635.855 776.904 635.197 777.494 635.197 778.222C635.197 778.95 635.855 779.54 636.667 779.54Z" fill="#3C3A40"/>
<path d="M694.389 779.54C695.201 779.54 695.858 778.95 695.858 778.222C695.858 777.494 695.201 776.904 694.389 776.904C693.577 776.904 692.919 777.494 692.919 778.222C692.919 778.95 693.577 779.54 694.389 779.54Z" fill="#3C3A40"/>
<path d="M752.111 779.54C752.923 779.54 753.581 778.95 753.581 778.222C753.581 777.494 752.923 776.904 752.111 776.904C751.299 776.904 750.641 777.494 750.641 778.222C750.641 778.95 751.299 779.54 752.111 779.54Z" fill="#3C3A40"/>
<path d="M809.833 779.54C810.645 779.54 811.303 778.95 811.303 778.222C811.303 777.494 810.645 776.904 809.833 776.904C809.022 776.904 808.364 777.494 808.364 778.222C808.364 778.95 809.022 779.54 809.833 779.54Z" fill="#3C3A40"/>
<path d="M867.556 779.54C868.367 779.54 869.025 778.95 869.025 778.222C869.025 777.494 868.367 776.904 867.556 776.904C866.744 776.904 866.086 777.494 866.086 778.222C866.086 778.95 866.744 779.54 867.556 779.54Z" fill="#3C3A40"/>
<path d="M925.278 779.54C926.089 779.54 926.747 778.95 926.747 778.222C926.747 777.494 926.089 776.904 925.278 776.904C924.466 776.904 923.808 777.494 923.808 778.222C923.808 778.95 924.466 779.54 925.278 779.54Z" fill="#3C3A40"/>
<path d="M983 779.54C983.812 779.54 984.47 778.95 984.47 778.222C984.47 777.494 983.812 776.904 983 776.904C982.188 776.904 981.53 777.494 981.53 778.222C981.53 778.95 982.188 779.54 983 779.54Z" fill="#3C3A40"/>
<path d="M1.72216 831.318C2.53386 831.318 3.19176 830.728 3.19176 830C3.19176 829.272 2.53386 828.682 1.72216 828.682C0.910464 828.682 0.252563 829.272 0.252563 830C0.252563 830.728 0.910464 831.318 1.72216 831.318Z" fill="#3C3A40"/>
<path d="M59.4443 831.318C60.2559 831.318 60.9139 830.728 60.9139 830C60.9139 829.272 60.2559 828.682 59.4443 828.682C58.6326 828.682 57.9746 829.272 57.9746 830C57.9746 830.728 58.6326 831.318 59.4443 831.318Z" fill="#3C3A40"/>
<path d="M117.167 831.318C117.978 831.318 118.636 830.728 118.636 830C118.636 829.272 117.978 828.682 117.167 828.682C116.355 828.682 115.697 829.272 115.697 830C115.697 830.728 116.355 831.318 117.167 831.318Z" fill="#3C3A40"/>
<path d="M174.889 831.318C175.7 831.318 176.358 830.728 176.358 830C176.358 829.272 175.7 828.682 174.889 828.682C174.077 828.682 173.419 829.272 173.419 830C173.419 830.728 174.077 831.318 174.889 831.318Z" fill="#3C3A40"/>
<path d="M232.611 831.318C233.423 831.318 234.081 830.728 234.081 830C234.081 829.272 233.423 828.682 232.611 828.682C231.799 828.682 231.141 829.272 231.141 830C231.141 830.728 231.799 831.318 232.611 831.318Z" fill="#3C3A40"/>
<path d="M290.333 831.318C291.145 831.318 291.803 830.728 291.803 830C291.803 829.272 291.145 828.682 290.333 828.682C289.522 828.682 288.864 829.272 288.864 830C288.864 830.728 289.522 831.318 290.333 831.318Z" fill="#3C3A40"/>
<path d="M348.055 831.318C348.867 831.318 349.525 830.728 349.525 830C349.525 829.272 348.867 828.682 348.055 828.682C347.244 828.682 346.586 829.272 346.586 830C346.586 830.728 347.244 831.318 348.055 831.318Z" fill="#3C3A40"/>
<path d="M405.778 831.318C406.589 831.318 407.247 830.728 407.247 830C407.247 829.272 406.589 828.682 405.778 828.682C404.966 828.682 404.308 829.272 404.308 830C404.308 830.728 404.966 831.318 405.778 831.318Z" fill="#3C3A40"/>
<path d="M463.5 831.318C464.312 831.318 464.97 830.728 464.97 830C464.97 829.272 464.312 828.682 463.5 828.682C462.688 828.682 462.03 829.272 462.03 830C462.03 830.728 462.688 831.318 463.5 831.318Z" fill="#3C3A40"/>
<path d="M521.222 831.318C522.034 831.318 522.692 830.728 522.692 830C522.692 829.272 522.034 828.682 521.222 828.682C520.41 828.682 519.752 829.272 519.752 830C519.752 830.728 520.41 831.318 521.222 831.318Z" fill="#3C3A40"/>
<path d="M578.944 831.318C579.756 831.318 580.414 830.728 580.414 830C580.414 829.272 579.756 828.682 578.944 828.682C578.133 828.682 577.475 829.272 577.475 830C577.475 830.728 578.133 831.318 578.944 831.318Z" fill="#3C3A40"/>
<path d="M636.667 831.318C637.478 831.318 638.136 830.728 638.136 830C638.136 829.272 637.478 828.682 636.667 828.682C635.855 828.682 635.197 829.272 635.197 830C635.197 830.728 635.855 831.318 636.667 831.318Z" fill="#3C3A40"/>
<path d="M694.389 831.318C695.201 831.318 695.858 830.728 695.858 830C695.858 829.272 695.201 828.682 694.389 828.682C693.577 828.682 692.919 829.272 692.919 830C692.919 830.728 693.577 831.318 694.389 831.318Z" fill="#3C3A40"/>
<path d="M752.111 831.318C752.923 831.318 753.581 830.728 753.581 830C753.581 829.272 752.923 828.682 752.111 828.682C751.299 828.682 750.641 829.272 750.641 830C750.641 830.728 751.299 831.318 752.111 831.318Z" fill="#3C3A40"/>
<path d="M809.833 831.318C810.645 831.318 811.303 830.728 811.303 830C811.303 829.272 810.645 828.682 809.833 828.682C809.022 828.682 808.364 829.272 808.364 830C808.364 830.728 809.022 831.318 809.833 831.318Z" fill="#3C3A40"/>
<path d="M867.556 831.318C868.367 831.318 869.025 830.728 869.025 830C869.025 829.272 868.367 828.682 867.556 828.682C866.744 828.682 866.086 829.272 866.086 830C866.086 830.728 866.744 831.318 867.556 831.318Z" fill="#3C3A40"/>
<path d="M925.278 831.318C926.089 831.318 926.747 830.728 926.747 830C926.747 829.272 926.089 828.682 925.278 828.682C924.466 828.682 923.808 829.272 923.808 830C923.808 830.728 924.466 831.318 925.278 831.318Z" fill="#3C3A40"/>
<path d="M983 831.318C983.812 831.318 984.47 830.728 984.47 830C984.47 829.272 983.812 828.682 983 828.682C982.188 828.682 981.53 829.272 981.53 830C981.53 830.728 982.188 831.318 983 831.318Z" fill="#3C3A40"/>
</svg>
